<?xml version="1.0" encoding="iso-8859-1"?>
<!-- Generator: Adobe Illustrator 19.0.0, SVG Export Plug-In . SVG Version: 6.00 Build 0)  -->
<!-- License: CC0. Made by SVG Repo: https://www.svgrepo.com/svg/277535/cricket -->
<svg version="1.1" id="Layer_1" xmlns="http://www.w3.org/2000/svg" xmlns:xlink="http://www.w3.org/1999/xlink" x="0px" y="0px"
	 viewBox="0 0 511.98 511.98" style="enable-background:new 0 0 511.98 511.98;" xml:space="preserve">

  <g transform="translate(256,256)">
    <g transform="translate(-256,-256)">
      <path style="fill:#ED5564;" d="M469.555,405.407c0-17.094-6.656-33.186-18.749-45.264c-24.952-24.951-65.574-24.951-90.527,0
      c-12.092,12.078-18.748,28.17-18.748,45.264c0,17.092,6.656,33.17,18.748,45.263l0,0c24.953,24.952,65.575,24.952,90.527,0
      C462.899,438.577,469.555,422.499,469.555,405.407z"/>
      <g>
        <path style="fill:#E6E9ED;" d="M428.182,382.783c-4.172-4.188-4.172-10.937,0-15.093l7.53-7.547c4.172-4.172,10.922-4.172,15.094,0
        s4.172,10.922,0,15.078l-7.547,7.562C439.103,386.938,432.339,386.938,428.182,382.783z"/>
        <path style="fill:#E6E9ED;" d="M391.966,418.984c-4.172-4.172-4.172-10.921,0-15.077l12.062-12.078
        c4.172-4.172,10.922-4.172,15.094,0s4.172,10.922,0,15.078l-12.062,12.077C402.886,423.155,396.136,423.155,391.966,418.984z"/>
        <path style="fill:#E6E9ED;" d="M360.279,450.67c-4.171-4.171-4.171-10.921,0-15.093l7.547-7.547c4.156-4.156,10.922-4.156,15.094,0
        c4.155,4.172,4.155,10.938,0,15.094l-7.547,7.546C371.201,454.842,364.451,454.842,360.279,450.67z"/>
      </g>
    </g>
  </g>
</svg>
