<svg xmlns="http://www.w3.org/2000/svg" xmlns:xlink="http://www.w3.org/1999/xlink" width="289.65420222834274" height="345.2392515996268" xml:space="preserve" overflow="hidden" viewBox="0 0 2272.0 2708.0"><defs><clipPath id="clip0"><rect x="349" y="622" width="2272" height="2708"/></clipPath></defs><g clip-path="url(#clip0)" transform="translate(-349 -622)"><path d="M1485.24 622C1640.01 622 1767.49 738.458 1785 888.48 1785.04 888.82 1784.72 889.084 1784.41 888.975 1768.97 883.778 1752.99 878.849 1736.6 874.23 1734.3 873.578 1732.6 871.693 1732.17 869.355 1710.64 752.56 1608.31 664.033 1485.24 664.053 1461.3 664.066 1436.92 667.018 1414.04 674.2 1413.3 674.428 1413.29 675.463 1414 675.737 1487.34 704.135 1559.99 761.211 1580.74 789.208 1584.14 793.807 1584.18 803.814 1581.34 801.861 1473.28 727.505 1393.96 687.621 1321.24 673.667 1318.46 673.127 1318.46 672.303 1320.19 671.055 1320.96 670.496 1323.38 669.048 1324.92 668.085 1371.41 638.963 1426.32 622 1485.24 622Z" fill="#FFFFFF" fill-rule="evenodd"/><path d="M1294.3 690.021C1349.46 696.402 1439.99 731.448 1507.57 797.202 1512.71 802.206 1511.01 809.891 1509.27 808.916 1458.49 780.538 1363.33 725.186 1269.15 714.564 1267.59 714.39 1267.84 713.083 1268.62 712.286 1275.27 705.394 1284.36 697.081 1292.35 690.59 1292.91 690.143 1293.59 689.931 1294.3 690.021Z" fill="#FFFFFF" fill-rule="evenodd"/><path d="M1250.18 736.005C1305.5 739.284 1390.89 769.084 1434.28 804.998 1441.43 810.917 1440.54 818.553 1438.71 818.145 1378.55 789.767 1312.11 776.731 1280.52 777.37 1276.77 777.452 1273.78 779.491 1271.33 782.177 1269.4 784.304 1267.79 786.835 1266.43 789.111 1254.36 809.226 1242.91 839.714 1237.9 868.46 1237.58 870.263 1236.34 871.688 1234.56 872.18 1219.47 876.391 1202.74 881.836 1185.76 887.969 1185.37 888.104 1184.95 887.784 1185 887.365 1191.19 836.203 1210.17 788.974 1238.79 749.032 1241.73 744.931 1244.78 740.885 1247.97 736.972 1248.52 736.315 1249.33 735.951 1250.18 736.005Z" fill="#FFFFFF" fill-rule="evenodd"/><path d="M1532.89 865.336C1639.31 871.314 1764.62 897.938 1878.71 956.77 1893.33 964.308 1894.6 977.37 1893.83 992.05 1881.01 1235.85 1805.73 1699.74 1594.9 2066.45 1590.04 2074.94 1592.77 2085.48 1601.26 2090.72 1637.83 2113.3 1688.08 2155.8 1703.16 2175.48 1705.03 2177.92 1703.88 2181.02 1700.67 2179.64 1648.53 2157.01 1576.53 2138.54 1484.99 2138.54 1393.44 2138.54 1321.46 2157.01 1269.31 2179.64 1266.11 2181.02 1264.76 2178.19 1266.83 2175.48 1281.73 2155.99 1331.09 2114.23 1367.55 2091.46 1376.45 2085.9 1378.97 2074.63 1373.23 2066.03 1155.63 1740.23 1088.77 1233.74 1076 990.667 1076 971.861 1077.67 965.289 1085.66 960.259 1118.42 939.632 1218 899.838 1277.01 889.882 1290.11 887.663 1298.42 896.958 1298.42 912.997L1298.42 1050.73C1298.42 1050.93 1298.36 1051.13 1298.22 1051.3 1257.42 1102.43 1214.33 1226.23 1246.63 1512.16 1275.53 1767.82 1372.68 2018.27 1442.52 2063.35 1541.63 2127.33 1584.95 1865.24 1594.7 1809.19 1636.77 1567.44 1574.3 1229.98 1391.03 1058.17 1390.83 1057.99 1390.73 1057.74 1390.73 1057.48L1390.73 898.934C1390.73 886.967 1393.73 877.829 1405.11 871.243 1409.48 868.717 1419.61 866.838 1433.89 865.811 1464.05 863.644 1497.42 863.343 1532.89 865.336ZM1717.21 946.752 1689.74 976.606 1724.74 1072.56 1648.41 1002.21 1608.78 1013.91 1624.25 1053.47 1724.74 1072.56 1626.52 1091.44 1615.79 1130.97 1656.82 1142.76 1724.74 1072.56 1701.22 1168.46 1732.27 1198.37 1759.74 1168.52 1724.74 1072.56 1801.07 1142.92 1840.69 1131.22 1825.23 1091.66 1724.74 1072.56 1822.95 1053.69 1833.69 1014.15 1792.66 1002.36 1724.74 1072.56 1748.26 976.669 1717.21 946.752Z" fill="#FFFFFF" fill-rule="evenodd"/><path d="M963.622 1040.83C965.181 1042.25 965.961 1045.38 966.651 1049.26 967.802 1055.73 973.318 1086.53 976.518 1103.55L976.518 1103.55C980.293 1123.81 970.537 1133.65 961.724 1141.87 961.199 1142.37 960.667 1142.89 960.128 1143.43 796.666 1294.58 699.366 1512.34 712.054 1749.2 726.287 2014.93 875.547 2242.04 1091.25 2370.29 1098.34 2375.42 1097.38 2380.33 1096.12 2385.13 1094.83 2390.04 1089.98 2407.2 1088.57 2411.66 1087.32 2415.63 1084.47 2416.78 1081.22 2415.51 835.143 2280.31 663.088 2028.27 647.193 1731.55 632.48 1456.83 754.952 1205.9 955.908 1042.66 959.722 1039.7 962.062 1039.41 963.622 1040.83Z" fill="#FFFFFF" fill-rule="evenodd"/><path d="M2006.38 1040.83C2007.94 1039.41 2010.28 1039.7 2014.09 1042.66 2215.05 1205.9 2337.52 1456.83 2322.81 1731.55 2306.92 2028.27 2134.86 2280.31 1888.78 2415.51 1885.53 2416.78 1882.69 2415.63 1881.43 2411.66 1880.02 2407.2 1875.17 2390.04 1873.89 2385.13 1872.62 2380.33 1871.66 2375.42 1878.74 2370.29 2094.45 2242.04 2243.72 2014.93 2257.95 1749.2 2270.63 1512.34 2173.33 1294.58 2009.87 1143.43 2009.33 1142.89 2008.8 1142.37 2008.27 1141.87 1999.46 1133.65 1989.71 1123.81 1993.48 1103.55L1993.48 1103.55C1996.68 1086.53 2002.2 1055.73 2003.35 1049.26 2004.04 1045.38 2004.82 1042.25 2006.38 1040.83Z" fill="#FFFFFF" fill-rule="evenodd"/><path d="M1322.56 1080.12C1343.82 1097.43 1367.96 1111.34 1394.16 1121.13 1394.45 1121.24 1394.7 1121.41 1394.89 1121.65 1414.23 1144.07 1431.86 1168.4 1447.92 1194.17 1448.16 1194.55 1447.83 1195.05 1447.39 1195 1390.45 1188.2 1338.41 1165.92 1295.51 1132.43 1295.05 1132.07 1294.88 1131.42 1295.08 1130.88 1303.34 1108.81 1312.61 1092.36 1321.83 1080.21 1321.99 1079.97 1322.32 1079.93 1322.56 1080.12Z" fill="#FFFFFF" fill-rule="evenodd"/><path d="M1286.34 1174.09C1337.07 1208.82 1407.17 1232.06 1467.35 1234.03 1467.89 1234.05 1468.38 1234.33 1468.62 1234.78 1488.88 1270.47 1505.96 1308.56 1519.95 1348.08 1520.07 1348.4 1519.98 1348.77 1519.72 1349.02 1513.15 1355.42 1507.15 1362.45 1503.67 1366.53 1400.4 1487.93 1384.29 1674.11 1404.49 1793.82 1426.19 1922.43 1473.93 2006.59 1494.24 1995.62 1494.82 1995.31 1494.57 1996.06 1494.24 1996.98 1489.43 2009.94 1473 2017.81 1460.27 2009.72 1408.52 1976.83 1309.71 1769.43 1279.45 1498.98 1261.68 1340.07 1268.48 1238.82 1285.59 1174.33 1285.68 1174.02 1286.07 1173.9 1286.34 1174.09Z" fill="#FBA300" fill-rule="evenodd"/><path d="M929.435 1291 1018.21 1343.02 1114 1668 921 1405.44 929.435 1291Z" fill="#FBA300" fill-rule="evenodd"/><path d="M2040.57 1291 2049 1405.44 1856 1668 1951.79 1343.02 2040.57 1291Z" fill="#FBA300" fill-rule="evenodd"/><path d="M894.743 1610 1158 1815 842.128 1730.87 789 1631.52 894.743 1610Z" fill="#FBA300" fill-rule="evenodd"/><path d="M2075.26 1610 2181 1631.52 2127.87 1730.87 1812 1815 2075.26 1610Z" fill="#FBA300" fill-rule="evenodd"/><path d="M895.525 1879 1197 1925.57 907.353 1988 825 1943.04 895.525 1879Z" fill="#FBA300" fill-rule="evenodd"/><path d="M2074.48 1879 2145 1943.04 2062.65 1988 1773 1925.57 2074.48 1879Z" fill="#FBA300" fill-rule="evenodd"/><path d="M1241 2008 1056.62 2180 977 2178.04 1000.22 2101.24 1241 2008Z" fill="#FBA300" fill-rule="evenodd"/><path d="M1729 2008 1969.78 2101.24 1993 2178.04 1913.38 2180 1729 2008Z" fill="#FBA300" fill-rule="evenodd"/><path d="M1388.6 3208.4 1361.15 3273.15 1414.35 3272.33ZM1094.76 3205.97 1094.55 3299.85 1116.64 3298.84C1147.1 3297.43 1169.84 3280.43 1169.84 3251.09 1169.84 3224.39 1146.89 3205.97 1113.85 3205.97ZM1783.45 3204.56C1758.56 3204.56 1742.47 3222.77 1742.47 3253.12 1742.47 3282.25 1760.92 3299.24 1785.59 3299.24 1810.9 3299.24 1825.92 3279.82 1825.92 3251.09 1825.92 3222.97 1808.33 3204.56 1783.45 3204.56ZM1344.85 3176.23 1417.99 3176.23 1482.14 3327.57 1436.44 3327.57 1426.15 3301.87 1349.13 3301.87 1338.19 3327.57 1296.79 3327.57 1354.28 3203.55 1344.85 3179.67ZM1237.69 3176.23 1280.37 3176.23 1278.44 3258.99 1278.44 3327.57 1240.26 3327.57 1239.83 3258.99ZM1053.57 3176.23 1112.56 3176.23C1177.56 3176.23 1212.96 3201.53 1212.96 3248.67 1212.96 3297.22 1177.78 3327.57 1113.42 3327.57L1056.15 3327.57 1055.72 3257.77ZM859.49 3176.23 915.049 3176.23 985.198 3264.65 981.121 3176.23 1023.59 3176.23 1019.09 3283.87 1019.09 3327.57 990.131 3327.57 913.548 3234.1 901.319 3327.57 859.058 3327.57 884.802 3210.83 859.49 3179.67ZM790 3176.23 832.687 3176.23 830.756 3258.99 830.756 3327.57 792.573 3327.57 792.147 3258.99ZM2049.79 3176.03 2175.5 3176.03 2175.5 3210.02 2087.76 3204.76 2087.12 3247.05C2098.7 3239.15 2112.43 3232.28 2133.67 3232.28 2155.33 3232.28 2180 3242.8 2180 3278.41 2180 3310.38 2148.68 3329.39 2101.28 3329.39 2077.46 3329.39 2055.37 3324.94 2043.36 3319.07L2043.36 3284.27C2061.59 3292.17 2082.18 3298.03 2101.28 3298.03 2121.01 3298.03 2132.59 3291.55 2132.59 3279.22 2132.59 3269.51 2125.73 3264.45 2112.86 3264.45 2101.92 3264.45 2088.19 3269.51 2082.4 3274.16L2049.79 3263.84ZM1939.05 3173.4C1984.95 3172.6 2014.13 3186.75 2014.13 3222.36 2014.13 3244.01 2002.97 3264.24 1965.65 3286.9L1948.7 3297.22 2020.99 3290.75 2020.99 3327.57 1887.99 3327.57 1887.99 3303.09 1930.04 3273.35C1960.71 3251.7 1971.22 3242.19 1971.22 3228.23 1971.22 3214.68 1959 3207.8 1937.97 3207.8 1917.81 3207.8 1902.15 3212.86 1884.77 3221.55L1884.77 3183.11C1898.93 3177.45 1917.81 3173.61 1939.05 3173.4ZM1601.37 3173.4C1647.27 3172.6 1676.45 3186.75 1676.45 3222.36 1676.45 3244.01 1665.29 3264.24 1627.97 3286.9L1611.02 3297.22 1683.31 3290.75 1683.31 3327.57 1550.31 3327.57 1550.31 3303.09 1592.36 3273.35C1623.03 3251.7 1633.54 3242.19 1633.54 3228.23 1633.54 3214.68 1621.32 3207.8 1600.29 3207.8 1580.13 3207.8 1564.47 3212.86 1547.09 3221.55L1547.09 3183.11C1561.25 3177.45 1580.13 3173.61 1601.37 3173.4ZM1784.73 3173C1835.36 3173 1869.04 3203.95 1869.04 3250.48 1869.04 3297.83 1834.93 3330 1784.52 3330 1733.04 3330 1699.14 3299.24 1699.14 3252.51 1699.14 3206.18 1734.97 3173 1784.73 3173Z" fill="#FBA300" fill-rule="evenodd"/><path d="M1189 2234.62 1251.02 2234.62 1251.02 2491.74 1189 2491.74ZM1697.16 2231C1734.16 2231 1771.52 2243.31 1798 2271.92L1759.19 2317.92C1746.13 2302.34 1724.01 2288.95 1695.35 2288.95 1658.35 2288.95 1626.79 2316.47 1626.79 2363.54 1626.79 2403.74 1652.55 2437.06 1698.98 2437.06 1725.09 2437.06 1744.32 2428.37 1763.18 2412.07L1797.28 2461.69C1774.42 2482.32 1739.6 2495 1696.07 2495 1619.54 2495 1562.95 2447.2 1562.95 2363.54 1562.95 2287.86 1610.83 2231 1697.16 2231ZM1434.2 2231C1471.2 2231 1508.56 2243.31 1535.04 2271.92L1496.22 2317.92C1483.17 2302.34 1461.04 2288.95 1432.38 2288.95 1395.38 2288.95 1363.83 2316.47 1363.83 2363.54 1363.83 2403.74 1389.59 2437.06 1436.01 2437.06 1462.13 2437.06 1481.35 2428.37 1500.21 2412.07L1534.31 2461.69C1511.46 2482.32 1476.64 2495 1433.11 2495 1356.57 2495 1299.99 2447.2 1299.99 2363.54 1299.99 2287.86 1347.87 2231 1434.2 2231Z" fill="#FFFFFF" fill-rule="evenodd"/><path d="M698.531 2624.95C672.679 2624.95 654.444 2646.39 654.444 2673.12 654.444 2699.85 672.679 2721.28 698.531 2721.28 723.92 2721.28 742.386 2700.31 742.386 2673.12 742.386 2645.92 723.92 2624.95 698.531 2624.95ZM1337.2 2591.3 1372.74 2591.3 1357.05 2653.53 1330.27 2653.53ZM1158.55 2591.3 1195.48 2591.3 1262.64 2692.47 1263.1 2692.24 1263.1 2591.3 1301.19 2591.3 1301.19 2754.93 1263.33 2754.93 1196.86 2656.29 1196.4 2656.29 1196.4 2754.93 1158.55 2754.93ZM1013.59 2591.3 1128.08 2591.3 1128.08 2625.64 1051.22 2625.64 1051.22 2656.98 1120.92 2656.98 1120.92 2690.17 1051.22 2690.17 1051.22 2720.59 1131.31 2720.59 1131.31 2754.93 1013.59 2754.93ZM814.172 2591.3 852.949 2591.3 898.419 2678.19 898.88 2678.19 943.889 2591.3 982.9 2591.3 982.9 2754.93 944.584 2754.93 944.584 2664.82 944.123 2664.82 910.883 2724.74 886.186 2724.74 852.949 2664.59 852.255 2664.59 852.255 2754.93 814.172 2754.93ZM374 2591.3 415.779 2591.3 443.249 2693.4 443.709 2693.4 469.562 2591.3 508.339 2591.3 533.497 2693.17 534.188 2693.17 561.887 2591.3 603.667 2591.3 551.732 2754.93 517.573 2754.93 489.644 2646.15 489.179 2646.15 459.867 2754.93 425.474 2754.93ZM1449.83 2589.23C1471.99 2589.23 1492.3 2594.99 1507.31 2607.21L1486.53 2638.09C1475.45 2629.1 1462.76 2622.88 1450.29 2622.88 1440.37 2622.88 1432.52 2627.03 1432.52 2635.78 1432.52 2644.08 1438.75 2648.23 1458.37 2655.37 1485.84 2665.74 1511 2674.04 1511 2706.99 1511 2743.4 1482.84 2757 1449.14 2757 1426.98 2757 1405.29 2751.24 1389.35 2738.8L1405.98 2706.53C1420.52 2717.59 1436.91 2722.89 1449.37 2722.89 1464.14 2722.89 1470.6 2716.9 1470.6 2709.3 1470.6 2700.08 1462.76 2696.62 1442.91 2689.94 1418.44 2681.64 1392.59 2670.58 1392.59 2637.86 1392.59 2605.82 1416.59 2589.23 1449.83 2589.23ZM698.531 2589C747.465 2589 782.779 2622.88 782.779 2673.12 782.779 2723.12 747.465 2757 698.531 2757 648.673 2757 614.051 2722.43 614.051 2673.12 614.051 2623.8 648.673 2589 698.531 2589Z" fill="#FFFFFF" fill-rule="evenodd"/><path d="M1819.07 2625.97 1819.07 2669.03 1838.27 2669.03C1854.72 2669.03 1863.65 2661.02 1863.65 2647.5 1863.65 2635.13 1856.11 2625.97 1838.97 2625.97ZM2472.36 2592.29 2596 2592.29 2596 2626.42 2553.48 2626.42 2553.48 2754.94 2514.66 2754.94 2514.66 2626.42 2472.36 2626.42ZM2334.36 2592.29 2447.71 2592.29 2447.71 2626.42 2371.59 2626.42 2371.59 2657.58 2440.61 2657.58 2440.61 2690.57 2371.59 2690.57 2371.59 2720.8 2450.91 2720.8 2450.91 2754.94 2334.36 2754.94ZM2173.49 2592.29 2211.64 2592.29 2211.64 2656.66 2212.11 2656.66 2260.79 2592.29 2309.23 2592.29 2252.32 2661.25C2276.31 2686.67 2298.94 2722.87 2310.38 2754.94L2267.19 2754.94C2259.42 2733.17 2243.64 2707.75 2226.72 2689.19L2211.64 2707.98 2211.64 2754.94 2173.49 2754.94ZM1936.31 2592.29 1975.38 2592.29 1975.38 2754.94 1936.31 2754.94ZM1781.84 2592.29 1845.12 2592.29C1886.72 2592.29 1903.17 2614.97 1903.17 2645.67 1903.17 2668.12 1892.65 2684.38 1873.7 2692.63 1891.98 2712.1 1903.64 2733.41 1912.32 2754.94L1869.14 2754.94C1861.34 2736.38 1849.71 2718.06 1833.93 2702.48L1819.07 2702.48 1819.07 2754.94 1781.84 2754.94ZM2086.19 2590C2109.51 2590 2133.06 2597.79 2149.72 2615.89L2125.26 2644.98C2117.05 2635.13 2103.11 2626.66 2085.05 2626.66 2061.76 2626.66 2041.86 2644.06 2041.86 2673.84 2041.86 2699.27 2058.08 2720.35 2087.33 2720.35 2103.81 2720.35 2115.91 2714.85 2127.79 2704.54L2149.28 2735.93C2134.86 2748.98 2112.93 2757 2085.52 2757 2037.3 2757 2001.65 2726.76 2001.65 2673.84 2001.65 2625.97 2031.82 2590 2086.19 2590ZM1694.55 2590C1717.86 2590 1741.41 2597.79 1758.07 2615.89L1733.61 2644.98C1725.4 2635.13 1711.46 2626.66 1693.41 2626.66 1670.1 2626.66 1650.22 2644.06 1650.22 2673.84 1650.22 2699.27 1666.44 2720.35 1695.69 2720.35 1712.14 2720.35 1724.25 2714.85 1736.15 2704.54L1757.63 2735.93C1743.21 2748.98 1721.28 2757 1693.86 2757 1645.65 2757 1610 2726.76 1610 2673.84 1610 2625.97 1640.16 2590 1694.55 2590Z" fill="#FFFFFF" fill-rule="evenodd"/><path d="M860.415 2881.92C819.119 2881.92 789.989 2915.86 789.989 2958.18 789.989 3000.51 819.119 3034.44 860.415 3034.44 900.974 3034.44 930.472 3001.24 930.472 2958.18 930.472 2915.13 900.974 2881.92 860.415 2881.92ZM349 2828.65 415.738 2828.65 459.615 2990.29 460.353 2990.29 501.649 2828.65 563.596 2828.65 603.786 2989.93 604.892 2989.93 649.138 2828.65 715.876 2828.65 632.915 3087.72 578.344 3087.72 533.729 2915.49 532.991 2915.49 486.164 3087.72 431.223 3087.72ZM860.415 2825C938.585 2825 995 2878.64 995 2958.18 995 3037.36 938.585 3091 860.415 3091 780.77 3091 725.464 3036.27 725.464 2958.18 725.464 2880.1 780.77 2825 860.415 2825Z" fill="#FFFFFF" fill-rule="evenodd"/><path d="M2015.46 2827C2051.98 2827 2088.86 2839.17 2115 2867.46L2076.69 2912.93C2063.8 2897.53 2041.96 2884.28 2013.67 2884.28 1977.15 2884.28 1946.02 2911.49 1946.02 2958.04 1946.02 2997.78 1971.44 3030.72 2017.25 3030.72 2043.03 3030.72 2062.01 3022.12 2080.63 3006.01L2114.28 3055.06C2091.73 3075.47 2057.35 3088 2014.39 3088 1938.86 3088 1883 3040.74 1883 2958.04 1883 2883.21 1930.27 2827 2015.46 2827Z" fill="#FFFFFF" fill-rule="evenodd"/><path d="M1113.07 2881.62 1113.07 2950.2 1144.02 2950.2C1170.56 2950.2 1184.93 2937.44 1184.93 2915.91 1184.93 2896.22 1172.77 2881.62 1145.13 2881.62ZM1296.95 2828 1359.97 2828 1359.97 3032.65 1479 3032.65 1479 3087 1296.95 3087ZM1053 2828 1155.08 2828C1222.15 2828 1248.68 2864.11 1248.68 2913 1248.68 2948.75 1231.73 2974.64 1201.14 2987.78 1230.62 3018.79 1249.42 3052.71 1263.42 3087L1193.77 3087C1181.24 3057.45 1162.45 3028.27 1137.02 3003.46L1113.07 3003.46 1113.07 3087 1053 3087Z" fill="#FFFFFF" fill-rule="evenodd"/><path d="M1586.16 2882.36 1586.16 3032.65 1613.85 3032.65C1658.88 3032.65 1688.41 2999.82 1688.41 2957.86 1688.41 2914.45 1658.51 2882.36 1618.28 2882.36ZM1526 2828 1616.8 2828C1699.85 2828 1753 2881.26 1753 2957.86 1753 3034.11 1702.8 3087 1617.91 3087L1526 3087Z" fill="#ffffff" fill-rule="evenodd"/><path d="M2434 2831 2530.53 2831C2593.11 2831 2621 2867.85 2621 2918.65 2621 2975.17 2583.45 3003.08 2525.88 3003.08L2492.26 3003.08 2492.26 3085 2434 3085 2434 2831ZM2492.26 2883.59 2492.26 2950.84 2519.08 2950.84C2545.55 2950.84 2559.14 2938.32 2559.14 2917.22 2559.14 2897.9 2546.98 2883.59 2520.16 2883.59L2492.26 2883.59Z" fill="#ffffff" fill-rule="evenodd"/><path d="M2167 2829 2226.98 2829 2226.98 2976.98C2226.98 3008.79 2242.34 3030.24 2271.63 3030.24 2297.7 3030.24 2317.35 3013.8 2317.35 2976.98L2317.35 2829 2377 2829 2377 2980.56C2377 3048.11 2338.78 3086 2271.63 3086 2209.48 3086 2167 3052.04 2167 2980.56L2167 2829Z" fill="#ffffff" fill-rule="evenodd"/></g></svg>